<?xml version="1.0" encoding="UTF-8" standalone="no"?>
<!-- Generator: Adobe Illustrator 17.0.0, SVG Export Plug-In . SVG Version: 6.00 Build 0)  -->

<svg
   xmlns:dc="http://purl.org/dc/elements/1.1/"
   xmlns:cc="http://creativecommons.org/ns#"
   xmlns:rdf="http://www.w3.org/1999/02/22-rdf-syntax-ns#"
   xmlns:svg="http://www.w3.org/2000/svg"
   xmlns="http://www.w3.org/2000/svg"
   xmlns:sodipodi="http://sodipodi.sourceforge.net/DTD/sodipodi-0.dtd"
   xmlns:inkscape="http://www.inkscape.org/namespaces/inkscape"
   version="1.1"
   id="Layer_1"
   x="0px"
   y="0px"
   width="1024px"
   height="1024px"
   viewBox="0 0 1024 1024"
   enable-background="new 0 0 1024 1024"
   xml:space="preserve"
   inkscape:version="0.91 r13725"
   sodipodi:docname="Calender.svg"><metadata
   id="metadata4222"><rdf:RDF><cc:Work
       rdf:about=""><dc:format>image/svg+xml</dc:format><dc:type
         rdf:resource="http://purl.org/dc/dcmitype/StillImage" /></cc:Work></rdf:RDF></metadata><defs
   id="defs4220">
		
		
		
		
		
	
		
		
		
		
		
	
		
		
		
		
		
	</defs><sodipodi:namedview
   pagecolor="#ffffff"
   bordercolor="#666666"
   borderopacity="1"
   objecttolerance="10"
   gridtolerance="10"
   guidetolerance="10"
   inkscape:pageopacity="0"
   inkscape:pageshadow="2"
   inkscape:window-width="1920"
   inkscape:window-height="1027"
   id="namedview4218"
   showgrid="false"
   inkscape:zoom="0.65186406"
   inkscape:cx="944.80542"
   inkscape:cy="610.7438"
   inkscape:window-x="5752"
   inkscape:window-y="1060"
   inkscape:window-maximized="1"
   inkscape:current-layer="g4176" />
<g
   id="g4176">
	<path
   style="fill:#98252b"
   d="M 0 0 L 0 1024 L 1024 1024 L 1024 0 L 0 0 z M 39.111328 51.910156 L 984.88867 51.910156 L 984.88867 272.35547 L 39.111328 272.35547 L 39.111328 51.910156 z M 39.111328 339.31836 L 214.51758 339.31836 L 214.51758 514.72656 L 39.111328 514.72656 L 39.111328 339.31836 z M 232.29688 339.31836 L 407.70312 339.31836 L 407.70312 514.72656 L 232.29688 514.72656 L 232.29688 339.31836 z M 424.29688 339.31836 L 599.70312 339.31836 L 599.70312 514.72656 L 424.29688 514.72656 L 424.29688 339.31836 z M 616.29688 339.31836 L 791.70312 339.31836 L 791.70312 514.72656 L 616.29688 514.72656 L 616.29688 339.31836 z M 809.48047 339.31836 L 984.88867 339.31836 L 984.88867 514.72656 L 809.48047 514.72656 L 809.48047 339.31836 z M 39.111328 553.12695 L 214.51758 553.12695 L 214.51758 728.5332 L 39.111328 728.5332 L 39.111328 553.12695 z M 232.29688 553.12695 L 407.70312 553.12695 L 407.70312 728.5332 L 232.29688 728.5332 L 232.29688 553.12695 z M 424.29688 553.12695 L 599.70312 553.12695 L 599.70312 728.5332 L 424.29688 728.5332 L 424.29688 553.12695 z M 616.29688 553.12695 L 791.70312 553.12695 L 791.70312 728.5332 L 616.29688 728.5332 L 616.29688 553.12695 z M 809.48047 553.12695 L 984.88867 553.12695 L 984.88867 728.5332 L 809.48047 728.5332 L 809.48047 553.12695 z M 39.111328 768.35547 L 214.51758 768.35547 L 214.51758 943.76367 L 39.111328 943.76367 L 39.111328 768.35547 z M 232.29688 768.35547 L 407.70312 768.35547 L 407.70312 943.76367 L 232.29688 943.76367 L 232.29688 768.35547 z M 424.29688 768.35547 L 599.70312 768.35547 L 599.70312 943.76367 L 424.29688 943.76367 L 424.29688 768.35547 z M 616.29688 768.35547 L 791.70312 768.35547 L 791.70312 943.76367 L 616.29688 943.76367 L 616.29688 768.35547 z M 809.48047 768.35547 L 984.88867 768.35547 L 984.88867 943.76367 L 809.48047 943.76367 L 809.48047 768.35547 z "
   id="rect4178" />
	
	
	
	
</g>
</svg>