<?xml version="1.0" encoding="UTF-8" standalone="no"?>
<!-- Generator: Adobe Illustrator 17.0.0, SVG Export Plug-In . SVG Version: 6.00 Build 0)  -->

<svg
   xmlns:dc="http://purl.org/dc/elements/1.1/"
   xmlns:cc="http://creativecommons.org/ns#"
   xmlns:rdf="http://www.w3.org/1999/02/22-rdf-syntax-ns#"
   xmlns:svg="http://www.w3.org/2000/svg"
   xmlns="http://www.w3.org/2000/svg"
   xmlns:sodipodi="http://sodipodi.sourceforge.net/DTD/sodipodi-0.dtd"
   xmlns:inkscape="http://www.inkscape.org/namespaces/inkscape"
   version="1.1"
   id="Layer_1"
   x="0px"
   y="0px"
   width="1024px"
   height="1024px"
   viewBox="0 0 1024 1024"
   enable-background="new 0 0 1024 1024"
   xml:space="preserve"
   inkscape:version="0.91 r13725"
   sodipodi:docname="DailyView.svg"><metadata
   id="metadata4285"><rdf:RDF><cc:Work
       rdf:about=""><dc:format>image/svg+xml</dc:format><dc:type
         rdf:resource="http://purl.org/dc/dcmitype/StillImage" /></cc:Work></rdf:RDF></metadata><defs
   id="defs4283" /><sodipodi:namedview
   pagecolor="#ffffff"
   bordercolor="#666666"
   borderopacity="1"
   objecttolerance="10"
   gridtolerance="10"
   guidetolerance="10"
   inkscape:pageopacity="0"
   inkscape:pageshadow="2"
   inkscape:window-width="1920"
   inkscape:window-height="1027"
   id="namedview4281"
   showgrid="false"
   inkscape:zoom="0.4609375"
   inkscape:cx="1089.6359"
   inkscape:cy="539.80727"
   inkscape:window-x="5752"
   inkscape:window-y="1060"
   inkscape:window-maximized="1"
   inkscape:current-layer="Layer_1" />
<path
   d="M 17.746094 -2.75 C 7.9450938 -2.75 -8.8293359e-017 5.1950938 0 14.996094 L 0 1006.2539 C 0 1016.0549 7.9450938 1024 17.746094 1024 L 1009.0039 1024 C 1018.8049 1024 1026.75 1016.0549 1026.75 1006.2539 L 1026.748 1006.2539 L 1026.748 14.996094 C 1026.748 5.1950938 1018.8049 -2.75 1009.0039 -2.75 L 17.746094 -2.75 z M 43.375 218.23633 L 983.375 218.23633 L 983.375 989.57031 L 43.375 989.57031 L 43.375 218.23633 z M 466.28516 414.85742 L 466.28516 829.14258 L 557.71484 829.14258 L 557.71484 414.85742 L 466.28516 414.85742 z "
   id="path4273" />



</svg>