<?xml version="1.0" encoding="utf-8"?>
<!-- Generator: Adobe Illustrator 17.0.0, SVG Export Plug-In . SVG Version: 6.00 Build 0)  -->
<!DOCTYPE svg PUBLIC "-//W3C//DTD SVG 1.1//EN" "http://www.w3.org/Graphics/SVG/1.1/DTD/svg11.dtd">
<svg version="1.1" id="Layer_1" xmlns="http://www.w3.org/2000/svg" xmlns:xlink="http://www.w3.org/1999/xlink" x="0px" y="0px"
	 width="1024px" height="1024px" viewBox="0 0 1024 1024" enable-background="new 0 0 1024 1024" xml:space="preserve">
<g>
	
		<ellipse fill="#FFFFFF" stroke="#98252B" stroke-width="40" stroke-miterlimit="10" cx="512.654" cy="517.652" rx="491.346" ry="479.348"/>
	
		<ellipse fill="#FFFFFF" stroke="#98252B" stroke-width="20" stroke-miterlimit="10" cx="512.654" cy="517.652" rx="335.868" ry="327.666"/>
	<polygon fill="#98252B" points="512.012,782.933 336.877,627.262 336.877,289.342 512.012,456.403 	"/>
	<polygon fill="#C32032" points="510.066,782.933 685.202,627.262 685.202,289.342 510.066,456.403 	"/>
	<g>
		<polygon fill="#F2CD14" points="463.054,457.527 510.066,489.309 510.066,568.411 463.113,533.675 		"/>
		<polygon fill="#F2CD14" points="374.823,447.386 465,497.22 465,459.426 374.823,397.552 		"/>
		<polygon fill="#F2CD14" points="404.012,611.644 374.823,600.684 374.823,445.487 404.012,461.618 		"/>
		<polygon fill="#F2CD14" points="510.066,702.25 374.823,627.262 374.823,600.684 510.066,651.467 		"/>
	</g>
	<g>
		<polygon fill="#FFFFFF" points="557.565,457.527 510.553,489.309 510.553,568.411 557.506,533.675 		"/>
		<polygon fill="#FFFFFF" points="645.796,447.386 555.619,497.22 555.619,459.426 645.796,397.552 		"/>
		<polygon fill="#FFFFFF" points="616.607,611.644 645.796,600.684 645.796,445.487 616.607,461.618 		"/>
		<polygon fill="#FFFFFF" points="510.553,702.25 645.796,627.262 645.796,600.684 510.553,651.467 		"/>
	</g>
	<polygon fill="#FFFFFF" stroke="#FFFFFF" stroke-miterlimit="10" points="865.839,759.654 724.112,662.203 724.112,377.883 
		865.839,293.115 	"/>
	<path fill="#FFFFFF" d="M419.911,595.588c0.829-8.053,4.575-21.99-0.166-28.227c-5.507-7.245-12.855-9.8-21.021-10.831
		c-5.372-20.342-24.056-27.414-41.743-21.411c-5.696-7.411-12.39-10.079-21.9-10.337c-11.184-0.303-23.782,0.554-31.309,10.598
		c-1.641,2.19-1.119,4.818,0.244,6.484c-4.022,6.497-0.909,15.567,5.139,19.471c-0.507,2.608-0.515,5.319,0.165,7.967
		c0.178,0.695,0.404,1.346,0.647,1.982c-3.496,2.196-6.176,5.722-7.284,10.891c-0.84,3.918-0.336,7.39,1.008,10.455
		c-1.892,1.671-3.413,4.07-4.327,7.4c-2.873,10.462,3.424,20.332,7.472,29.318c2.7,5.995,5.294,13.006,9.876,17.26
		c-0.363,1.576-0.598,3.235-0.673,4.985c-0.495,11.586,3.125,21.047,13.545,25.479c4.726,2.01,9.292,0.52,13.617-2.269
		c2.453,11.384,12.169,17.974,22.439,17.43c2.013,6.137,5.41,11.895,10.43,14.714c1.53,0.859,3.042,1.471,4.533,1.896
		c0.656,2.104,2.514,3.784,5.098,3.065c17.606-4.897,26.945-21.771,29.055-40.269c20.589-20.171,6.182-23.605,5.157-36.663
		C436.203,627.433,429.62,606.507,419.911,595.588z"/>
</g>
</svg>
