<?xml version="1.0" encoding="UTF-8" standalone="no"?>
<!-- Generator: Adobe Illustrator 17.0.0, SVG Export Plug-In . SVG Version: 6.00 Build 0)  -->

<svg
   xmlns:dc="http://purl.org/dc/elements/1.1/"
   xmlns:cc="http://creativecommons.org/ns#"
   xmlns:rdf="http://www.w3.org/1999/02/22-rdf-syntax-ns#"
   xmlns:svg="http://www.w3.org/2000/svg"
   xmlns="http://www.w3.org/2000/svg"
   xmlns:sodipodi="http://sodipodi.sourceforge.net/DTD/sodipodi-0.dtd"
   xmlns:inkscape="http://www.inkscape.org/namespaces/inkscape"
   version="1.1"
   id="Layer_1"
   x="0px"
   y="0px"
   width="1024px"
   height="1024px"
   viewBox="0 0 1024 1024"
   enable-background="new 0 0 1024 1024"
   xml:space="preserve"
   inkscape:version="0.91 r13725"
   sodipodi:docname="Prices.svg"><metadata
   id="metadata4350"><rdf:RDF><cc:Work
       rdf:about=""><dc:format>image/svg+xml</dc:format><dc:type
         rdf:resource="http://purl.org/dc/dcmitype/StillImage" /></cc:Work></rdf:RDF></metadata><defs
   id="defs4348">
	
		
	
	
		
	
		
</defs><sodipodi:namedview
   pagecolor="#ffffff"
   bordercolor="#666666"
   borderopacity="1"
   objecttolerance="10"
   gridtolerance="10"
   guidetolerance="10"
   inkscape:pageopacity="0"
   inkscape:pageshadow="2"
   inkscape:window-width="1920"
   inkscape:window-height="1027"
   id="namedview4346"
   showgrid="false"
   inkscape:zoom="0.65186406"
   inkscape:cx="476.87185"
   inkscape:cy="441.10114"
   inkscape:window-x="5752"
   inkscape:window-y="1060"
   inkscape:window-maximized="1"
   inkscape:current-layer="Layer_1" />
<path
   style="color:#000000;font-style:normal;font-variant:normal;font-weight:normal;font-stretch:normal;font-size:medium;line-height:normal;font-family:sans-serif;text-indent:0;text-align:start;text-decoration:none;text-decoration-line:none;text-decoration-style:solid;text-decoration-color:#000000;letter-spacing:normal;word-spacing:normal;text-transform:none;direction:ltr;block-progression:tb;writing-mode:lr-tb;baseline-shift:baseline;text-anchor:start;white-space:normal;clip-rule:nonzero;display:inline;overflow:visible;visibility:visible;opacity:1;isolation:auto;mix-blend-mode:normal;color-interpolation:sRGB;color-interpolation-filters:linearRGB;solid-color:#000000;solid-opacity:1;fill:#98252b;fill-opacity:1;fill-rule:nonzero;stroke:none;stroke-width:12;stroke-linecap:butt;stroke-linejoin:miter;stroke-miterlimit:10;stroke-dasharray:none;stroke-dashoffset:0;stroke-opacity:1;color-rendering:auto;image-rendering:auto;shape-rendering:auto;text-rendering:auto;enable-background:accumulate"
   d="m -5.2578125,206.42969 0,6 0,599.16406 1035.2578125,0 0,-605.16406 -1035.2578125,0 z m 12,12 1011.2578125,0 0,581.16406 -1011.2578125,0 0,-581.16406 z M 512.37109,302.74023 c -45.14273,-2e-4 -85.87036,23.56174 -114.99804,60.97071 -29.12769,37.40897 -46.93762,88.73342 -46.9375,145.29883 -1.2e-4,56.5654 17.80981,107.88986 46.9375,145.29882 29.12768,37.40897 69.85531,60.97091 114.99804,60.97071 45.14274,2e-4 85.87037,-23.56174 114.99805,-60.97071 29.12769,-37.40896 46.93762,-88.73342 46.9375,-145.29882 1.2e-4,-56.56542 -17.80981,-107.88986 -46.9375,-145.29883 -29.12768,-37.40897 -69.85531,-60.97091 -114.99805,-60.97071 z m 0,12 c 40.97817,-1.8e-4 78.21938,21.26936 105.5293,56.34375 27.30992,35.0744 44.40636,83.8852 44.40625,137.92579 1.1e-4,54.04058 -17.09633,102.85138 -44.40625,137.92578 -27.30992,35.07439 -64.55113,56.34393 -105.5293,56.34375 -40.97816,1.8e-4 -78.21937,-21.26936 -105.52929,-56.34375 -27.30992,-35.0744 -44.40636,-83.8852 -44.40625,-137.92578 -1.2e-4,-54.04059 17.09633,-102.85139 44.40625,-137.92579 27.30992,-35.07439 64.55113,-56.34393 105.52929,-56.34375 z"
   id="rect4338"
   inkscape:connector-curvature="0" /><path
   style="color:#000000;font-style:normal;font-variant:normal;font-weight:normal;font-stretch:normal;font-size:medium;line-height:normal;font-family:sans-serif;text-indent:0;text-align:start;text-decoration:none;text-decoration-line:none;text-decoration-style:solid;text-decoration-color:#000000;letter-spacing:normal;word-spacing:normal;text-transform:none;direction:ltr;block-progression:tb;writing-mode:lr-tb;baseline-shift:baseline;text-anchor:start;white-space:normal;clip-rule:nonzero;display:inline;overflow:visible;visibility:visible;opacity:1;isolation:auto;mix-blend-mode:normal;color-interpolation:sRGB;color-interpolation-filters:linearRGB;solid-color:#000000;solid-opacity:1;fill:#98252b;fill-opacity:1;fill-rule:nonzero;stroke:none;stroke-width:12;stroke-linecap:butt;stroke-linejoin:miter;stroke-miterlimit:10;stroke-dasharray:none;stroke-dashoffset:0;stroke-opacity:1;color-rendering:auto;image-rendering:auto;shape-rendering:auto;text-rendering:auto;enable-background:accumulate"
   d="m 47.738281,253.19531 0,108.03321 12,0 0,-108.03321 -12,0 z"
   id="line4340"
   inkscape:connector-curvature="0" /><path
   style="color:#000000;font-style:normal;font-variant:normal;font-weight:normal;font-stretch:normal;font-size:medium;line-height:normal;font-family:sans-serif;text-indent:0;text-align:start;text-decoration:none;text-decoration-line:none;text-decoration-style:solid;text-decoration-color:#000000;letter-spacing:normal;word-spacing:normal;text-transform:none;direction:ltr;block-progression:tb;writing-mode:lr-tb;baseline-shift:baseline;text-anchor:start;white-space:normal;clip-rule:nonzero;display:inline;overflow:visible;visibility:visible;opacity:1;isolation:auto;mix-blend-mode:normal;color-interpolation:sRGB;color-interpolation-filters:linearRGB;solid-color:#000000;solid-opacity:1;fill:#98252b;fill-opacity:1;fill-rule:nonzero;stroke:none;stroke-width:12;stroke-linecap:butt;stroke-linejoin:miter;stroke-miterlimit:10;stroke-dasharray:none;stroke-dashoffset:0;stroke-opacity:1;color-rendering:auto;image-rendering:auto;shape-rendering:auto;text-rendering:auto;enable-background:accumulate"
   d="m 969.89453,667.39062 0,108.03321 12,0 0,-108.03321 -12,0 z"
   id="line4342"
   inkscape:connector-curvature="0" />
</svg>